<svg width="594" height="594" viewBox="0 0 594 594" fill="none" xmlns="http://www.w3.org/2000/svg">
<g clip-path="url(#clip0_2468_83607)">
<path d="M593.986 335.169C593.431 355.391 576.332 371.25 556.103 371.25H491.906V389.812C491.906 415.178 486.242 439.217 476.128 460.75L546.002 530.624C560.499 545.123 560.499 568.629 546.002 583.127C531.502 597.625 507.996 597.624 493.498 583.127L429.995 519.625C401.282 542.913 364.696 556.875 324.844 556.875V273.797C324.844 266.109 318.61 259.875 310.922 259.875H283.078C275.39 259.875 269.156 266.109 269.156 273.797V556.875C229.304 556.875 192.718 542.913 164.004 519.625L100.502 583.127C86.0022 597.625 62.4963 597.624 47.9978 583.127C33.5005 568.629 33.5005 545.123 47.9978 530.624L117.872 460.75C107.757 439.217 102.094 415.178 102.094 389.812V371.25H37.8975C17.669 371.25 0.569424 355.391 0.0148695 335.169C-0.561728 314.189 16.2745 297 37.1248 297H102.094V228.847L47.9978 174.751C33.5005 160.252 33.5005 136.746 47.9978 122.248C62.4974 107.75 86.0022 107.75 100.502 122.248L163.878 185.625H430.121L493.497 122.249C507.996 107.751 531.501 107.751 546.001 122.249C560.498 136.748 560.498 160.254 546.001 174.752L491.906 228.847V297H556.875C577.725 297 594.561 314.189 593.986 335.169ZM298.16 0C226.397 0 168.222 58.1749 168.222 129.938H428.097C428.097 58.1749 369.923 0 298.16 0Z" fill="black"/>
</g>
<defs>
<clipPath id="clip0_2468_83607">
<rect width="594" height="594" fill="white"/>
</clipPath>
</defs>
</svg>
