<svg width="64" height="65" viewBox="0 0 64 65" fill="none" xmlns="http://www.w3.org/2000/svg">
<path d="M31.6382 62.31C31.7392 63.661 30.5442 64.854 28.9652 64.973C27.3902 65.092 26.0252 64.095 25.9242 62.743C25.8232 61.391 27.0182 60.2 28.5952 60.079C30.1722 59.959 31.5352 60.959 31.6382 62.31Z" fill="#787878"/>
<path d="M51.5912 52.9533C52.8637 52.0128 53.242 50.3665 52.4361 49.2761C51.6302 48.1858 49.9454 48.0642 48.6729 49.0047C47.4004 49.9451 47.0222 51.5914 47.8281 52.6818C48.6339 53.7722 50.3188 53.8937 51.5912 52.9533Z" fill="#787878"/>
<path d="M15.9851 49.42C15.1831 50.515 13.5001 50.646 12.2231 49.711C10.9451 48.78 10.5571 47.135 11.3591 46.042C12.1591 44.945 13.8431 44.814 15.1191 45.749C16.3971 46.68 16.7831 48.326 15.9851 49.42" fill="#787878"/>
<path d="M30.4335 36.7573C32.3835 36.6094 33.8557 35.0565 33.7217 33.2887C33.5876 31.521 31.8981 30.2078 29.9481 30.3556C27.9981 30.5035 26.5259 32.0564 26.6599 33.8242C26.794 35.5919 28.4834 36.9051 30.4335 36.7573Z" fill="#A7A6A7"/>
<path d="M30.8798 61.827C30.8458 62.588 29.4508 63.19 28.6888 63.158C27.9258 63.125 26.5848 62.493 26.6178 61.73L28.5798 33.838C28.5979 33.4719 28.7602 33.1278 29.0311 32.8809C29.302 32.6339 29.6596 32.5042 30.0258 32.52C30.391 32.5366 30.7347 32.6974 30.9815 32.9672C31.2282 33.237 31.3578 33.5937 31.3418 33.959L30.8798 61.827Z" fill="#A7A6A7"/>
<path d="M51.4198 49.24C51.9648 49.697 51.0928 51.211 50.6368 51.757C50.1778 52.302 49.1408 52.643 48.5928 52.187L29.5728 34.761C29.4401 34.6535 29.3302 34.5207 29.2493 34.3703C29.1685 34.2199 29.1183 34.055 29.1018 33.885C29.0852 33.7151 29.1026 33.5436 29.153 33.3804C29.2034 33.2173 29.2857 33.0658 29.3951 32.9347C29.5045 32.8036 29.6389 32.6957 29.7905 32.617C29.9421 32.5384 30.1077 32.4907 30.2779 32.4766C30.4481 32.4626 30.6193 32.4826 30.7817 32.5353C30.9441 32.5881 31.0944 32.6726 31.2238 32.784L51.4138 49.24" fill="#A7A6A7"/>
<path d="M15.2659 48.624C14.8459 48.973 13.2389 48.01 12.8899 47.586C12.5399 47.164 12.4299 46.33 12.8509 45.979L28.5159 33.403C28.6156 33.3132 28.7324 33.2445 28.8594 33.2011C28.9863 33.1577 29.1207 33.1404 29.2545 33.1503C29.3883 33.1602 29.5187 33.1971 29.6379 33.2587C29.757 33.3204 29.8625 33.4055 29.9479 33.509C30.0332 33.6125 30.0968 33.7322 30.1347 33.8609C30.1726 33.9896 30.184 34.1246 30.1683 34.2579C30.1526 34.3911 30.1101 34.5198 30.0434 34.6361C29.9766 34.7525 29.887 34.8542 29.7799 34.935L15.2659 48.624Z" fill="#A7A6A7"/>
<path d="M30.8459 34.4318C32.5675 34.3019 33.8676 32.9314 33.7499 31.3707C33.6322 29.8099 32.1412 28.65 30.4196 28.7798C28.6981 28.9096 27.3979 30.2801 27.5156 31.8409C27.6333 33.4016 29.1243 34.5616 30.8459 34.4318Z" fill="#959595"/>
<path d="M60.948 36.912C62.303 37.659 62.858 39.248 62.188 40.464C61.519 41.68 59.879 42.06 58.521 41.315C57.17 40.568 56.615 38.978 57.281 37.761C57.952 36.549 59.592 36.167 60.948 36.912Z" fill="#57C6E9"/>
<path d="M10.4687 11.7249C12.9685 7.1869 13.09 2.45869 10.7399 1.16413C8.38992 -0.130423 4.45833 2.4989 1.95849 7.0369C-0.541351 11.5749 -0.6628 16.3031 1.68722 17.5977C4.03725 18.8922 7.96884 16.2629 10.4687 11.7249Z" fill="#959595"/>
<path d="M60.23 34.459C60.8054 34.7763 61.2314 35.309 61.4143 35.9401C61.5973 36.5712 61.5224 37.2491 61.206 37.825L59.186 41.483C58.8692 42.0585 58.3369 42.4846 57.7061 42.6676C57.0752 42.8507 56.3975 42.7756 55.822 42.459L3.23595 18.449C2.95072 18.2925 2.69916 18.0812 2.49567 17.8274C2.29219 17.5735 2.14079 17.282 2.05013 16.9695C1.95947 16.657 1.93134 16.3297 1.96734 16.0063C2.00335 15.683 2.10278 15.3699 2.25995 15.085L8.85695 3.10702C9.01366 2.82196 9.22502 2.57059 9.47896 2.36729C9.73289 2.16398 10.0244 2.01273 10.3368 1.92217C10.6493 1.83162 10.9765 1.80354 11.2998 1.83955C11.6231 1.87556 11.9361 1.97494 12.221 2.13202L60.231 34.462" fill="#D1D2D3"/>
<path d="M60.7831 38.485C60.4664 39.0605 59.9341 39.4866 59.3032 39.6696C58.6723 39.8526 57.9946 39.7776 57.4191 39.461L4.83309 15.451C4.33402 15.1758 3.94493 14.7372 3.7313 14.2088C3.51767 13.6805 3.49252 13.0947 3.66009 12.55L2.25909 15.096C2.10179 15.3808 2.00225 15.6939 1.96617 16.0173C1.9301 16.3407 1.9582 16.6681 2.04887 16.9806C2.13954 17.2931 2.29099 17.5846 2.49455 17.8385C2.6981 18.0924 2.94976 18.3036 3.23509 18.46L55.8201 42.47C56.1049 42.6271 56.418 42.7264 56.7413 42.7625C57.0646 42.7985 57.3918 42.7704 57.7042 42.6798C58.0166 42.5893 58.3082 42.438 58.5621 42.2347C58.816 42.0314 59.0274 41.78 59.1841 41.495L61.2041 37.836C61.2861 37.685 61.3511 37.527 61.3991 37.367L60.7851 38.484" fill="#BEC0C0"/>
<path d="M59.07 36.35L56.73 40.603C56.5411 40.9542 56.2839 41.2639 55.9733 41.514C55.6628 41.7641 55.3053 41.9494 54.922 42.059L55.815 42.468C56.0999 42.625 56.4129 42.7242 56.7362 42.7602C57.0594 42.7961 57.3866 42.768 57.699 42.6775C58.0114 42.5869 58.3029 42.4357 58.5568 42.2325C58.8108 42.0293 59.0222 41.778 59.179 41.493L61.199 37.834C61.5155 37.2583 61.5906 36.5804 61.4078 35.9493C61.225 35.3182 60.7992 34.7855 60.224 34.468L59.256 33.814C59.568 34.583 59.531 35.522 59.073 36.35" fill="#A7A6A7"/>
<path d="M8.88827 10.5439C11.0533 6.61159 11.6103 2.7641 10.1323 1.95035C8.65423 1.13659 5.70094 3.66471 3.53589 7.59706C1.37084 11.5294 0.813894 15.3769 2.29191 16.1907C3.76993 17.0044 6.72323 14.4763 8.88827 10.5439Z" fill="#57C6E9"/>
<path d="M32.3299 23.781C33.5229 21.616 34.3609 19.424 34.8499 17.368L32.8809 16.041C32.5499 18.151 31.7479 20.489 30.4759 22.797C29.1289 25.244 27.4659 27.272 25.7549 28.695L27.9139 29.678C29.5169 28.119 31.0469 26.114 32.3299 23.781Z" fill="#A7A6A7"/>
</svg>
