<svg width="128" height="61" viewBox="0 0 128 61" fill="none" xmlns="http://www.w3.org/2000/svg">
<path d="M92.1575 33.0396C98.892 29.2644 105.609 25.4585 112.366 21.7228C118.78 18.1756 126.326 21.4466 127.781 28.3489C128.622 32.3417 126.796 36.6551 123.102 38.756C110.993 45.6431 98.8665 52.5029 86.6795 59.2578C82.9075 61.3484 79.022 60.9639 75.5845 58.4019C72.0925 55.8009 70.992 52.2131 71.811 48.0373C72.746 44.8584 74.886 42.7332 77.8045 41.1433C82.6295 38.5149 87.377 35.748 92.1575 33.0396" fill="#FABC05"/>
<path d="M97.1015 30.2945C90.384 26.4901 83.6495 22.7154 76.9555 18.8724C70.601 15.2241 69.731 7.2102 75.128 2.5293C78.25 -0.177635 82.9905 -0.791051 86.7015 1.28051C98.8675 8.07201 111.017 14.8923 123.104 21.8155C126.845 23.9584 128.446 27.4354 127.893 31.6219C127.33 35.8734 124.698 38.5974 120.583 39.9936C117.294 40.7929 114.339 40.0463 111.469 38.3744C106.724 35.6098 101.895 32.9805 97.1015 30.2945" fill="#109D58"/>
<path d="M35.8761 27.6027C31.5656 29.993 27.2526 32.3788 22.9461 34.7763C20.4276 36.1788 17.9361 37.6292 15.4046 39.0083C10.3031 41.7874 4.24215 40.1585 1.34965 35.2634C-1.41085 30.5922 0.175649 24.5361 5.08865 21.737C17.1011 14.8938 29.1446 8.1003 41.2316 1.38249C44.9386 -0.677354 48.7847 -0.418226 52.2127 2.04471C55.8307 4.64429 57.0151 8.30233 56.2026 12.5904C55.6986 13.6284 55.3977 14.845 54.6427 15.6624C53.4157 16.9922 52.0206 18.2653 50.4676 19.2004C45.6616 22.0927 40.7476 24.8148 35.8761 27.6027" fill="#E94436"/>
<path d="M30.9335 30.2838C35.21 32.7316 39.4835 35.1848 43.764 37.6258C46.2675 39.0537 48.8 40.4342 51.2895 41.8841C56.3065 44.8072 57.892 50.7442 54.9945 55.6364C52.2295 60.3056 46.063 61.9931 41.1225 59.2393C29.044 52.5073 16.9945 45.7251 4.99051 38.8672C1.30901 36.764 -0.383986 33.3836 0.0875141 29.2546C0.585014 24.8963 3.23851 22.0664 7.45001 20.6087C8.62251 20.5165 9.85251 20.1622 10.9555 20.3916C12.749 20.7644 14.5765 21.3066 16.1825 22.1518C21.152 24.7675 26.024 27.5598 30.9335 30.2838" fill="#4385F3"/>
</svg>
